<?xml version="1.0" encoding="utf-8"?>
<!-- Generator: Adobe Illustrator 23.1.1, SVG Export Plug-In . SVG Version: 6.00 Build 0)  -->
<svg version="1.1" id="Layer_1" xmlns="http://www.w3.org/2000/svg" xmlns:xlink="http://www.w3.org/1999/xlink" x="0px" y="0px"
	 viewBox="0 0 8000 1080" style="enable-background:new 0 0 8000 1080;" xml:space="preserve">
<style type="text/css">
	.st0{fill:#1E1E1E;}
	.st1{font-family:'OpenSans-Bold';}
	.st2{font-size:32px;}
	.st3{fill:none;stroke:#C1272D;stroke-width:5;stroke-linecap:round;stroke-linejoin:round;stroke-miterlimit:10;}
	.st4{fill:#686867;}
	.st5{opacity:0.5;fill:#4472C4;}
	.st6{fill:#0A2B7C;}
	.st7{fill:none;}
	.st8{font-family:'FuturaPT-Book';}
	.st9{font-size:14px;}
</style>
<g>
	<g>
		<text transform="matrix(1 0 0 1 119.0737 119.5436)" class="st0 st1 st2">How does Nuclear testing relate to energy production and consumption?</text>
	</g>
</g>
<polyline class="st3" points="82.9,1022 259.6,1016.1 436.4,1010.2 613.2,1010.2 790,1010.2 966.7,1010.2 1143.5,1004.3 
	1320.3,998.4 1497,986.6 1673.8,986.6 1856.5,969 2033.3,933.6 2210,910 2386.8,857 2563.6,792.2 2740.3,686.1 2917.1,674.3 
	3093.9,586 3270.7,556.5 3447.4,597.7 3624.2,621.3 3801,586 3977.7,556.5 4154.5,556.5 4331.3,521.1 4508.1,450.4 4684.8,409.2 
	4861.6,367.9 5038.4,303.1 5215.1,362.1 5391.9,320.8 5574.6,285.5 5751.4,285.5 5928.1,320.8 6104.9,297.2 6281.7,285.5 
	6458.4,303.1 6635.2,356.2 6812,332.6 6988.8,291.3 7165.5,291.3 7342.3,261.9 7519.1,285.5 7695.8,309 7872.6,303.1 8049.4,320.8 
	8226.2,320.8 8402.9,309 8579.7,314.9 8756.5,291.3 8933.2,314.9 9110,320.8 9292.7,332.6 9469.5,314.9 9646.2,314.9 9823,309 "/>
<g>
	<g>
		<text transform="matrix(1 0 0 1 119.0737 171.0446)" class="st4 st1 st2">United States 1960-1980</text>
	</g>
</g>
<path class="st5" d="M7953.6,378.1h22.3V1080h-22.3V378.1z M7871.6,388.1h29.8V1080h-29.8V388.1z M7789.7,373.1h29.8V1080h-29.8
	V373.1z M7707.7,393.1h29.8V1080h-29.8V393.1z M7625.8,408.2h29.8V1080h-29.8V408.2z M7551.3,418.2h22.3V1080h-22.3V418.2z
	 M7469.3,423.2h22.3V1080h-22.3V423.2z M7387.4,438.2h22.3V1080h-22.3V438.2z M7305.4,443.2h22.3V1080h-22.3V443.2z M7223.5,458.3
	h22.3V1080h-22.3V458.3z M7141.6,468.3h29.8V1080h-29.8V468.3z M7059.6,478.3h29.8V1080h-29.8V478.3z M6977.7,483.4h29.8V1080h-29.8
	V483.4z"/>
<g>
	<path class="st6" d="M140.9,668.1c0-12,9.7-21.7,21.7-21.7s21.7,9.7,21.7,21.7c0,12-9.7,21.7-21.7,21.7S140.9,680,140.9,668.1z"/>
	<path class="st6" d="M373.7,668.1c0-12.4,10.1-22.5,22.5-22.5s22.5,10.1,22.5,22.5s-10.1,22.5-22.5,22.5S373.7,680.5,373.7,668.1z"
		/>
	<path class="st6" d="M840.1,668.1c0-12.9,10.5-23.4,23.4-23.4s23.4,10.5,23.4,23.4c0,12.9-10.5,23.4-23.4,23.4
		S840.1,681,840.1,668.1z"/>
	<path class="st6" d="M1530.3,668.1c0-18.9,15.3-34.2,34.2-34.2c18.9,0,34.2,15.3,34.2,34.2s-15.3,34.2-34.2,34.2
		C1545.6,702.3,1530.3,687,1530.3,668.1z"/>
	<path class="st6" d="M1768.9,668.1c0-16.1,13.1-29.2,29.2-29.2c16.1,0,29.2,13.1,29.2,29.2c0,16.1-13.1,29.2-29.2,29.2
		C1782,697.3,1768.9,684.2,1768.9,668.1z"/>
	<path class="st6" d="M2001.7,668.1c0-16.6,13.4-30,30-30c16.6,0,30,13.4,30,30s-13.4,30-30,30
		C2015.2,698.1,2001.7,684.7,2001.7,668.1z"/>
	<path class="st6" d="M2239.6,668.1c0-14.3,11.6-25.9,25.9-25.9s25.9,11.6,25.9,25.9c0,14.3-11.6,25.9-25.9,25.9
		S2239.6,682.3,2239.6,668.1z"/>
	<path class="st6" d="M2463.2,668.1c0-19.8,16.1-35.9,35.9-35.9c19.8,0,35.9,16.1,35.9,35.9c0,19.8-16.1,35.9-35.9,35.9
		C2479.3,703.9,2463.2,687.9,2463.2,668.1z"/>
	<path class="st6" d="M2696.9,668.1c0-19.8,16.1-35.9,35.9-35.9s35.9,16.1,35.9,35.9c0,19.8-16.1,35.9-35.9,35.9
		S2696.9,687.9,2696.9,668.1z"/>
	<path class="st6" d="M2918.8,668.1c0-26.3,21.3-47.6,47.6-47.6c26.3,0,47.6,21.3,47.6,47.6c0,26.3-21.3,47.6-47.6,47.6
		C2940.1,715.6,2918.8,694.3,2918.8,668.1z"/>
	<path class="st6" d="M3114.9,668.1c0-47,38.1-85.1,85.1-85.1c47,0,85.1,38.1,85.1,85.1c0,47-38.1,85.1-85.1,85.1
		C3153,753.2,3114.9,715.1,3114.9,668.1z"/>
	<path class="st6" d="M3605.6,668.1c0-34.1,27.6-61.8,61.8-61.8c34.1,0,61.8,27.6,61.8,61.8c0,34.1-27.6,61.8-61.8,61.8
		C3633.2,729.8,3605.6,702.2,3605.6,668.1z"/>
	<path class="st6" d="M3871,668.1c0-16.6,13.4-30,30-30s30,13.4,30,30s-13.4,30-30,30S3871,684.7,3871,668.1z"/>
	<path class="st6" d="M4033.7,668.1c0-55.8,45.2-101,101-101c55.8,0,101,45.2,101,101c0,55.8-45.2,101-101,101
		C4078.9,769,4033.7,723.8,4033.7,668.1z"/>
	<path class="st6" d="M4308.2,668.1c0-33.2,26.9-60.1,60.1-60.1s60.1,26.9,60.1,60.1c0,33.2-26.9,60.1-60.1,60.1
		S4308.2,701.2,4308.2,668.1z"/>
	<path class="st6" d="M4543.5,668.1c0-32.3,26.2-58.4,58.4-58.4s58.4,26.2,58.4,58.4s-26.2,58.4-58.4,58.4
		S4543.5,700.3,4543.5,668.1z"/>
	<path class="st6" d="M4783,668.1c0-29,23.5-52.6,52.6-52.6s52.6,23.5,52.6,52.6s-23.5,52.6-52.6,52.6S4783,697.1,4783,668.1z"/>
	<path class="st6" d="M5008.3,668.1c0-33.6,27.3-60.9,60.9-60.9c33.6,0,60.9,27.3,60.9,60.9c0,33.6-27.3,60.9-60.9,60.9
		C5035.6,729,5008.3,701.7,5008.3,668.1z"/>
	<path class="st6" d="M5247,668.1c0-30.9,25-55.9,55.9-55.9s55.9,25,55.9,55.9c0,30.9-25,55.9-55.9,55.9S5247,698.9,5247,668.1z"/>
	<path class="st6" d="M5469,668.1c0-37.3,30.3-67.6,67.6-67.6s67.6,30.3,67.6,67.6c0,37.3-30.3,67.6-67.6,67.6
		S5469,705.4,5469,668.1z"/>
	<path class="st6" d="M5711,668.1c0-32.7,26.5-59.2,59.2-59.2s59.2,26.5,59.2,59.2c0,32.7-26.5,59.2-59.2,59.2
		S5711,700.8,5711,668.1z"/>
	<path class="st6" d="M5950.5,668.1c0-29.5,23.9-53.4,53.4-53.4c29.5,0,53.4,23.9,53.4,53.4c0,29.5-23.9,53.4-53.4,53.4
		C5974.4,721.5,5950.5,697.6,5950.5,668.1z"/>
	<path class="st6" d="M6196.6,668.1c0-22.6,18.3-40.9,40.9-40.9c22.6,0,40.9,18.3,40.9,40.9s-18.3,40.9-40.9,40.9
		C6214.9,708.9,6196.6,690.6,6196.6,668.1z"/>
	<path class="st6" d="M6427.8,668.1c0-24,19.4-43.4,43.4-43.4c24,0,43.4,19.4,43.4,43.4c0,24-19.4,43.4-43.4,43.4
		C6447.2,711.5,6427.8,692,6427.8,668.1z"/>
	<path class="st6" d="M6663.9,668.1c0-22.6,18.3-40.9,40.9-40.9s40.9,18.3,40.9,40.9s-18.3,40.9-40.9,40.9
		S6663.9,690.6,6663.9,668.1z"/>
	<path class="st6" d="M6899.3,668.1c0-21.7,17.6-39.2,39.2-39.2c21.7,0,39.2,17.6,39.2,39.2c0,21.7-17.6,39.2-39.2,39.2
		C6916.8,707.3,6899.3,689.7,6899.3,668.1z"/>
	<path class="st6" d="M7132.9,668.1c0-21.7,17.6-39.2,39.2-39.2c21.7,0,39.2,17.6,39.2,39.2c0,21.7-17.6,39.2-39.2,39.2
		C7150.5,707.3,7132.9,689.7,7132.9,668.1z"/>
	<path class="st6" d="M7368.2,668.1c0-20.7,16.8-37.6,37.6-37.6s37.6,16.8,37.6,37.6c0,20.7-16.8,37.6-37.6,37.6
		S7368.2,688.8,7368.2,668.1z"/>
	<path class="st6" d="M7601.9,668.1c0-20.7,16.8-37.6,37.6-37.6s37.6,16.8,37.6,37.6c0,20.7-16.8,37.6-37.6,37.6
		S7601.9,688.8,7601.9,668.1z"/>
</g>
<g>
	<line class="st3" x1="122.5" y1="245.5" x2="166.5" y2="245.5"/>
	<path class="st6" d="M133,272.4c0-6.4,5.2-11.6,11.6-11.6s11.6,5.2,11.6,11.6s-5.2,11.6-11.6,11.6S133,278.8,133,272.4z"/>
	<rect x="133.2" y="299" class="st5" width="22.6" height="55"/>
	<g>
		<rect x="204.7" y="244" class="st7" width="342.3" height="18"/>
		<text transform="matrix(1 0 0 1 204.7241 254.2031)" class="st8 st9">Nuclear energy production as a % of total energy production</text>
		<rect x="204.7" y="275.8" class="st7" width="342.3" height="18"/>
		<text transform="matrix(1 0 0 1 204.7241 285.9845)" class="st8 st9">Number of nuclear tests</text>
		<rect x="205.2" y="307.8" class="st7" width="342.3" height="18"/>
		<text transform="matrix(1 0 0 1 205.1699 317.9846)" class="st8 st9">Energy consumption</text>
	</g>
</g>
</svg>
