<?xml version="1.0" encoding="utf-8"?>
<!-- Generator: Adobe Illustrator 23.1.1, SVG Export Plug-In . SVG Version: 6.00 Build 0)  -->
<svg version="1.1" xmlns="http://www.w3.org/2000/svg" xmlns:xlink="http://www.w3.org/1999/xlink" x="0px" y="0px"
	 viewBox="0 0 12716 1024" style="enable-background:new 0 0 12716 1024;" xml:space="preserve">
<style type="text/css">
	.st0{fill:#FAFAFA;}
	.st1{fill:none;}
	.st2{font-family:'OpenSans-Bold';}
	.st3{font-size:48px;}
	.st4{clip-path:url(#SVGID_2_);}
	.st5{clip-path:url(#SVGID_4_);}
	.st6{opacity:0.5;fill:#FFBA5F;}
	.st7{opacity:0.5;fill:#FF45DB;stroke:#FF45DB;stroke-miterlimit:10;}
	.st8{fill:none;stroke:#FF45DB;stroke-width:8;stroke-miterlimit:10;}
	.st9{opacity:0.5;fill:#A3FF5C;}
	.st10{display:none;}
	.st11{display:inline;}
	
		.st12{clip-path:url(#SVGID_6_);fill:none;stroke:#ED7D31;stroke-width:2;stroke-linecap:round;stroke-linejoin:round;stroke-miterlimit:10;}
	
		.st13{clip-path:url(#SVGID_8_);fill:none;stroke:#A5A5A5;stroke-width:2;stroke-linecap:round;stroke-linejoin:round;stroke-miterlimit:10;}
	
		.st14{clip-path:url(#SVGID_10_);fill:none;stroke:#FFC000;stroke-width:2;stroke-linecap:round;stroke-linejoin:round;stroke-miterlimit:10;}
	
		.st15{clip-path:url(#SVGID_12_);fill:none;stroke:#5B9BD5;stroke-width:2;stroke-linecap:round;stroke-linejoin:round;stroke-miterlimit:10;}
	
		.st16{clip-path:url(#SVGID_14_);fill:none;stroke:#264478;stroke-width:2;stroke-linecap:round;stroke-linejoin:round;stroke-miterlimit:10;}
</style>
<g id="Layer_1">
	<rect x="0" y="0" class="st0" width="12716" height="1026"/>
	<rect x="136.4" y="52.4" class="st1" width="1445.4" height="174.5"/>
	<text transform="matrix(1 0 0 1 136.4399 88.8896)" class="st2 st3">Nuclear Energy and Testing</text>
	<g>
		<defs>
			<rect id="SVGID_1_" x="61" y="187" width="150" height="649"/>
		</defs>
		<clipPath id="SVGID_2_">
			<use xlink:href="#SVGID_1_"  style="overflow:visible;"/>
		</clipPath>
		<g class="st4">
			
				<image style="overflow:visible;" width="3360" height="806" xlink:href="../../../../../Desktop/Screen Shot 2019-10-30 at 17.02.35.png"  transform="matrix(1.256 0 0 1.256 8531.5479 -2.7825)">
			</image>
			
				<image style="overflow:visible;" width="3296" height="800" xlink:href="../../../../../Desktop/Screen Shot 2019-10-30 at 17.02.24.png"  transform="matrix(1.2787 0 0 1.2787 4316.5479 -8.4849)">
			</image>
			
				<image style="overflow:visible;" width="3352" height="798" xlink:href="../../../../../Desktop/Screen Shot 2019-10-30 at 17.02.10.png"  transform="matrix(1.2771 0 0 1.2771 35.5478 -9.4849)">
			</image>
		</g>
	</g>
	<g>
		<defs>
			<rect id="SVGID_3_" x="211" y="836" width="13003" height="140"/>
		</defs>
		<clipPath id="SVGID_4_">
			<use xlink:href="#SVGID_3_"  style="overflow:visible;"/>
		</clipPath>
		<g class="st5">
			
				<image style="overflow:visible;" width="3360" height="806" xlink:href="../../../../../Desktop/Screen Shot 2019-10-30 at 17.02.35.png"  transform="matrix(1.1931 0 0 1.256 8707.2461 8.8682)">
			</image>
			
				<image style="overflow:visible;" width="3296" height="800" xlink:href="../../../../../Desktop/Screen Shot 2019-10-30 at 17.02.24.png"  transform="matrix(1.2787 0 0 1.2787 4492.2456 3.1659)">
			</image>
			
				<image style="overflow:visible;" width="3352" height="798" xlink:href="../../../../../Desktop/Screen Shot 2019-10-30 at 17.02.10.png"  transform="matrix(1.2771 0 0 1.2771 211.2457 2.1659)">
			</image>
		</g>
	</g>
	<circle class="st6" cx="405.5" cy="234.5" r="43.5"/>
	<circle class="st6" cx="1011.9" cy="340.4" r="43.5"/>
	<circle class="st6" cx="585.5" cy="296.5" r="23.5"/>
	<circle class="st6" cx="1193.5" cy="497.5" r="26.5"/>
	<circle class="st6" cx="2006.5" cy="386.5" r="21.5"/>
	<circle class="st6" cx="1939.5" cy="212.5" r="21.5"/>
	<circle class="st6" cx="1609.5" cy="340.5" r="43.5"/>
	<circle class="st6" cx="1361.5" cy="234.5" r="43.5"/>
	<circle class="st6" cx="807" cy="320" r="65"/>
	<polygon class="st7" points="264.1,836 1375,764 2046.8,800 3976.5,696.3 5030.2,754.5 6393.5,616.9 7006,673 7407.7,636 
		7947.8,675.1 8955.4,564 9956.5,660.3 11609.6,586.2 12281.3,650.8 12716,603.2 12716,822.2 	"/>
	<polyline class="st8" points="262,836 924.8,818.5 1501.4,818.5 1925.6,827.2 2561.9,818.5 3006,818.5 3642.3,818.5 4669.6,818.5 
		4941.4,802.7 5405.3,802.7 5631.7,831.1 6068.1,802.7 6929.8,802.7 7141.9,802.7 7546.2,819.3 8089.7,802.7 8904.9,802.7 
		9839.5,802.7 10363.1,794.8 11118.7,782.5 11821.2,782.5 12384.6,762.3 12716,762.3 	"/>
	<circle class="st6" cx="2230.9" cy="274.5" r="43.5"/>
	<circle class="st6" cx="2837.3" cy="380.4" r="43.5"/>
	<circle class="st6" cx="2410.9" cy="336.5" r="23.5"/>
	<circle class="st6" cx="3018.9" cy="537.5" r="26.5"/>
	<circle class="st6" cx="3831.9" cy="426.5" r="21.5"/>
	<circle class="st6" cx="3764.9" cy="252.5" r="21.5"/>
	<circle class="st6" cx="3434.9" cy="380.5" r="43.5"/>
	<circle class="st6" cx="3186.9" cy="274.5" r="43.5"/>
	<circle class="st6" cx="2632.4" cy="360" r="65"/>
	<circle class="st6" cx="4246.8" cy="369.4" r="43.5"/>
	<circle class="st6" cx="4428.4" cy="526.5" r="26.5"/>
	<circle class="st6" cx="5241.4" cy="415.5" r="21.5"/>
	<circle class="st6" cx="5174.4" cy="241.5" r="21.5"/>
	<circle class="st6" cx="4844.4" cy="369.5" r="43.5"/>
	<circle class="st6" cx="4596.4" cy="263.5" r="43.5"/>
	<circle class="st6" cx="4041.9" cy="349" r="65"/>
	<circle class="st6" cx="5635.2" cy="331.5" r="43.5"/>
	<circle class="st6" cx="5816.9" cy="488.6" r="26.5"/>
	<circle class="st6" cx="6562.9" cy="203.6" r="21.5"/>
	<circle class="st6" cx="6232.9" cy="331.6" r="43.5"/>
	<circle class="st6" cx="5984.9" cy="225.6" r="43.5"/>
	<circle class="st6" cx="5430.4" cy="311.1" r="65"/>
	<circle class="st6" cx="6854.2" cy="395.5" r="43.5"/>
	<circle class="st6" cx="7035.9" cy="552.6" r="26.5"/>
	<circle class="st6" cx="7781.9" cy="267.6" r="21.5"/>
	<circle class="st6" cx="7451.9" cy="395.6" r="43.5"/>
	<circle class="st6" cx="7203.9" cy="289.6" r="43.5"/>
	<circle class="st6" cx="6649.4" cy="375.1" r="65"/>
	<circle class="st9" cx="6377.3" cy="339.8" r="43.5"/>
	<circle class="st9" cx="6558.9" cy="496.9" r="26.5"/>
	<circle class="st9" cx="7371.9" cy="385.9" r="21.5"/>
	<circle class="st9" cx="7304.9" cy="211.9" r="21.5"/>
	<circle class="st9" cx="6974.9" cy="339.9" r="43.5"/>
	<circle class="st9" cx="6726.9" cy="233.9" r="43.5"/>
	<circle class="st9" cx="6172.4" cy="319.4" r="65"/>
	<circle class="st9" cx="7786.8" cy="328.8" r="43.5"/>
	<circle class="st9" cx="7968.4" cy="485.9" r="26.5"/>
	<circle class="st9" cx="8781.4" cy="374.9" r="21.5"/>
	<circle class="st9" cx="8714.4" cy="200.9" r="21.5"/>
	<circle class="st9" cx="8384.4" cy="328.9" r="43.5"/>
	<circle class="st9" cx="8136.4" cy="222.9" r="43.5"/>
	<circle class="st9" cx="7581.9" cy="308.4" r="65"/>
	<circle class="st9" cx="9175.2" cy="290.9" r="43.5"/>
	<circle class="st9" cx="9356.8" cy="448" r="26.5"/>
	<circle class="st9" cx="10102.8" cy="163" r="21.5"/>
	<circle class="st9" cx="9772.8" cy="291" r="43.5"/>
	<circle class="st9" cx="9524.8" cy="185" r="43.5"/>
	<circle class="st9" cx="8970.3" cy="270.5" r="65"/>
	<circle class="st9" cx="10394.2" cy="354.9" r="43.5"/>
	<circle class="st9" cx="10575.8" cy="512" r="26.5"/>
	<circle class="st9" cx="11321.8" cy="227" r="21.5"/>
	<circle class="st9" cx="10991.8" cy="355" r="43.5"/>
	<circle class="st9" cx="10743.8" cy="249" r="43.5"/>
	<circle class="st9" cx="10189.3" cy="334.5" r="65"/>
</g>
<g id="Layer_2" class="st10">
	<g class="st11">
		
			<image style="overflow:visible;" width="3360" height="806" xlink:href="../../../../../Desktop/Screen Shot 2019-10-30 at 17.02.35.png"  transform="matrix(1.256 0 0 1.256 8496 6.7024)">
		</image>
		
			<image style="overflow:visible;" width="3296" height="800" xlink:href="../../../../../Desktop/Screen Shot 2019-10-30 at 17.02.24.png"  transform="matrix(1.2787 0 0 1.2787 4281 1)">
		</image>
		
			<image style="overflow:visible;" width="3352" height="798" xlink:href="../../../../../Desktop/Screen Shot 2019-10-30 at 17.02.10.png"  transform="matrix(1.2771 0 0 1.2771 0 0)">
		</image>
	</g>
	<g class="st11">
		<defs>
			<rect id="SVGID_5_" x="2902" y="230.4" width="11687" height="563"/>
		</defs>
		<clipPath id="SVGID_6_">
			<use xlink:href="#SVGID_5_"  style="overflow:visible;"/>
		</clipPath>
		<polyline class="st12" points="3000.9,792.4 3198.6,791.4 3396.4,790.4 3594.1,790.4 3791.9,789.4 3989.6,787.4 4187.4,784.4 
			4385.1,778.4 4582.9,775.4 4780.6,771.4 4985,769.4 5182.7,756.4 5380.5,740.4 5578.2,743.4 5776,744.4 5973.7,732.4 
			6171.5,745.4 6369.2,740.4 6567,709.4 6764.7,689.4 6962.5,644.4 7160.2,554.4 7358,549.4 7555.7,488.4 7753.5,422.4 
			7951.2,384.4 8149,352.4 8346.7,352.4 8544.5,352.4 8742.2,322.4 8940,322.4 9144.3,334.4 9342,333.4 9539.8,303.4 9737.5,319.4 
			9935.3,313.4 10133,305.4 10330.8,299.4 10528.5,315.4 10726.3,320.4 10924,308.4 11121.8,310.4 11319.5,300.4 11517.3,302.4 
			11715,300.4 11912.8,299.4 12110.5,299.4 12308.3,305.4 12506,310.4 12703.8,310.4 12901.5,318.4 13099.3,296.4 13303.6,318.4 
			13501.4,326.4 13699.1,304.4 13896.9,308.4 		"/>
	</g>
	<g class="st11">
		<defs>
			<rect id="SVGID_7_" x="2902" y="230.4" width="11687" height="563"/>
		</defs>
		<clipPath id="SVGID_8_">
			<use xlink:href="#SVGID_7_"  style="overflow:visible;"/>
		</clipPath>
		<polyline class="st13" points="3000.9,783.4 3198.6,782.4 3396.4,779.4 3594.1,770.4 3791.9,765.4 3989.6,745.4 4187.4,730.4 
			4385.1,723.4 4582.9,720.4 4780.6,717.4 4985,728.4 5182.7,726.4 5380.5,723.4 5578.2,731.4 5776,716.4 5973.7,723.4 
			6171.5,711.4 6369.2,704.4 6567,712.4 6764.7,713.4 6962.5,712.4 7160.2,707.4 7358,692.4 7555.7,680.4 7753.5,673.4 
			7951.2,664.4 8149,670.4 8346.7,679.4 8544.5,664.4 8742.2,650.4 8940,664.4 9144.3,656.4 9342,643.4 9539.8,619.4 9737.5,623.4 
			9935.3,626.4 10133,624.4 10330.8,617.4 10528.5,621.4 10726.3,630.4 10924,651.4 11121.8,646.4 11319.5,650.4 11517.3,653.4 
			11715,665.4 11912.8,664.4 12110.5,673.4 12308.3,693.4 12506,708.4 12703.8,677.4 12901.5,690.4 13099.3,675.4 13303.6,671.4 
			13501.4,669.4 13699.1,674.4 13896.9,662.4 		"/>
	</g>
	<g class="st11">
		<defs>
			<rect id="SVGID_9_" x="2902" y="230.4" width="11687" height="563"/>
		</defs>
		<clipPath id="SVGID_10_">
			<use xlink:href="#SVGID_9_"  style="overflow:visible;"/>
		</clipPath>
		<polyline class="st14" points="5182.7,782.4 5380.5,783.4 5578.2,773.4 5776,775.4 5973.7,774.4 6171.5,772.4 6369.2,779.4 
			6567,777.4 6764.7,777.4 6962.5,778.4 7160.2,779.4 7358,784.4 7555.7,779.4 7753.5,778.4 7951.2,776.4 8149,778.4 8346.7,779.4 
			8544.5,778.4 8742.2,783.4 8940,780.4 9144.3,782.4 9342,781.4 9539.8,784.4 9737.5,784.4 9935.3,781.4 10133,780.4 
			10330.8,780.4 10528.5,778.4 10726.3,778.4 10924,775.4 11121.8,772.4 11319.5,773.4 11517.3,776.4 11715,778.4 11912.8,778.4 
			12110.5,778.4 12308.3,780.4 12506,782.4 12703.8,780.4 12901.5,776.4 13099.3,774.4 13303.6,775.4 13501.4,775.4 13699.1,776.4 
					"/>
	</g>
	<g class="st11">
		<defs>
			<rect id="SVGID_11_" x="2902" y="230.4" width="11687" height="563"/>
		</defs>
		<clipPath id="SVGID_12_">
			<use xlink:href="#SVGID_11_"  style="overflow:visible;"/>
		</clipPath>
		<polyline class="st15" points="5182.7,785.4 5380.5,785.4 5578.2,770.4 5776,761.4 5973.7,755.4 6171.5,756.4 6369.2,769.4 
			6567,781.4 6764.7,788.4 6962.5,793.4 7160.2,787.4 7358,787.4 7555.7,786.4 7753.5,784.4 7951.2,784.4 8149,783.4 8346.7,782.4 
			8544.5,788.4 8742.2,793.4 8940,788.4 9144.3,787.4 9342,786.4 9539.8,787.4 9737.5,787.4 9935.3,788.4 10133,790.4 
			10330.8,789.4 10528.5,790.4 10726.3,789.4 10924,775.4 11121.8,773.4 11319.5,779.4 11517.3,780.4 11715,773.4 11912.8,777.4 
			12110.5,779.4 12308.3,773.4 12506,782.4 12703.8,774.4 12901.5,770.4 13099.3,759.4 13303.6,764.4 13501.4,763.4 13699.1,763.4 
					"/>
	</g>
	<g class="st11">
		<defs>
			<rect id="SVGID_13_" x="2902" y="230.4" width="11687" height="563"/>
		</defs>
		<clipPath id="SVGID_14_">
			<use xlink:href="#SVGID_13_"  style="overflow:visible;"/>
		</clipPath>
		<polyline class="st16" points="8940,725.4 9144.3,723.4 9342,719.4 9539.8,715.4 9737.5,723.4 9935.3,721.4 10133,713.4 
			10330.8,712.4 10528.5,713.4 10726.3,703.4 10924,700.4 11121.8,697.4 11319.5,694.4 11517.3,690.4 11715,696.4 11912.8,695.4 
			12110.5,695.4 12308.3,694.4 12506,695.4 12703.8,690.4 12901.5,690.4 13099.3,690.4 13303.6,689.4 13501.4,691.4 13699.1,687.4 
					"/>
	</g>
</g>
</svg>
